<svg width="16" height="16" viewBox="0 0 16 16" fill="none" xmlns="http://www.w3.org/2000/svg">
<path d="M14.5313 13.4688L11.9875 10.925C12.8091 9.87652 13.2538 8.58201 13.25 7.25C13.25 6.06331 12.8981 4.90328 12.2388 3.91658C11.5795 2.92989 10.6425 2.16085 9.5461 1.70673C8.44975 1.2526 7.24335 1.13378 6.07946 1.36529C4.91558 1.5968 3.84648 2.16825 3.00736 3.00736C2.16825 3.84648 1.5968 4.91558 1.36529 6.07946C1.13378 7.24335 1.2526 8.44975 1.70673 9.5461C2.16085 10.6425 2.92989 11.5795 3.91658 12.2388C4.90328 12.8981 6.06331 13.25 7.25 13.25C8.58201 13.2538 9.87652 12.8091 10.925 11.9875L13.4688 14.5313C13.6103 14.6709 13.8011 14.7493 14 14.7493C14.1989 14.7493 14.3897 14.6709 14.5313 14.5313C14.6012 14.4616 14.6567 14.3788 14.6945 14.2876C14.7324 14.1965 14.7518 14.0987 14.7518 14C14.7518 13.9013 14.7324 13.8036 14.6945 13.7124C14.6567 13.6212 14.6012 13.5384 14.5313 13.4688ZM2.75 7.25C2.75 6.35999 3.01392 5.48996 3.50839 4.74994C4.00286 4.00992 4.70566 3.43314 5.52793 3.09254C6.35019 2.75195 7.255 2.66284 8.12791 2.83647C9.00082 3.0101 9.80265 3.43869 10.432 4.06802C11.0613 4.69736 11.4899 5.49918 11.6635 6.3721C11.8372 7.24501 11.7481 8.14981 11.4075 8.97208C11.0669 9.79435 10.4901 10.4971 9.75007 10.9916C9.01005 11.4861 8.14002 11.75 7.25 11.75C6.05704 11.7483 4.9134 11.2737 4.06985 10.4302C3.22629 9.5866 2.75166 8.44297 2.75 7.25Z" fill="white"/>
</svg>
